<svg xmlns="http://www.w3.org/2000/svg" viewBox="0 0 32 32">
  <!-- Ocean -->
  <circle cx="16" cy="16" r="14" fill="#0ea5e9"/>

  <!-- Simplified continents -->
  <!-- North America -->
  <path d="M 8 8 Q 10 6 12 8 L 13 10 L 11 12 Q 9 11 8 10 Z" fill="#22c55e"/>

  <!-- South America -->
  <path d="M 10 14 L 11 15 L 12 18 Q 11 20 10 19 L 9 17 Z" fill="#22c55e"/>

  <!-- Europe/Africa -->
  <path d="M 16 7 L 18 8 L 19 10 L 18 14 Q 17 16 16 17 L 15 19 Q 14 18 14 16 L 15 14 L 16 12 Q 15 10 16 9 Z" fill="#22c55e"/>

  <!-- Asia -->
  <path d="M 20 6 Q 24 7 26 10 L 25 13 Q 23 14 22 13 L 21 11 Q 20 9 20 7 Z" fill="#22c55e"/>

  <!-- Australia -->
  <path d="M 23 18 Q 25 18 26 20 L 25 22 Q 23 22 22 21 Z" fill="#22c55e"/>

  <!-- Spherical highlight for 3D effect -->
  <ellipse cx="12" cy="10" rx="6" ry="5" fill="white" opacity="0.15"/>

  <!-- Border -->
  <circle cx="16" cy="16" r="14" fill="none" stroke="#0284c7" stroke-width="1.5"/>
</svg>
